<?xml version="1.0" encoding="UTF-8"?>
<svg version="1.1" viewBox="0 0 2048 365" width="1280" height="1280" xmlns="http://www.w3.org/2000/svg">
<path transform="translate(23,21)" d="m0 0h945v336l-944 1-1-1zm13 12v312h918l1-1v-311z" fill="#044D91"/>
<path transform="translate(386,87)" d="m0 0h18l18 3 16 6 15 8 10 8 10 9 10 14 8 16 5 16 2 11v22l-4 19-6 15-8 14-11 13-7 7-13 9-16 8-13 4-10 2h-29l-17-4-17-7-17-12-9-8-11-14-7-12-7-19-3-17v-19l4-19 6-15 6-11 9-12 11-11 14-10 17-8 15-4zm10 39-17 2-11 4-10 6-10 9-9 13-5 13-1 4v24l4 13 6 11 9 10 7 6 9 5 13 5 8 1h12l12-2 13-5 11-8 5-4 9-12 5-12 3-13v-13l-3-14-8-16-11-12-8-6-13-6-8-2z" fill="#054D91"/>
<path transform="translate(1241,89)" d="m0 0h73l18 1 15 4 14 7 9 7 9 8 9 13 6 13 3 9 1 6v24l-4 15-8 16-8 10-8 8-7 5 1 5 18 43 1 4h-42l-7-15-10-24h-44v38l-1 1h-39v-197zm39 40-1 7v72h47l10-3 10-7 7-8 5-12 1-12-2-10-5-10-7-8-10-6-8-3z" fill="#0F0F10"/>
<path transform="translate(1518,90)" d="m0 0h24l16 4 17 9 12 10 10 13 8 16 3 11 1 7v127h-39l-1-13v-27l-78 1-1 39h-40v-97l1-33 4-15 4-10 7-11 11-12 11-8 16-8zm4 39-12 5-8 6-7 9-4 10-1 5v44h79v-48l-4-10-4-6-4-5-9-6-10-4z" fill="#0F0F11"/>
<path transform="translate(553,90)" d="m0 0h72l15 3 14 5 15 9 10 8 8 8 11 15 7 15 4 12 2 12v22l-3 17-6 15-7 12-7 9-9 10-12 9-17 9-14 5-10 2h-73zm39 39v118h32l10-3 12-6 10-9 7-8 7-16 2-11v-11l-3-14-7-14-9-10-10-8-16-7-5-1z" fill="#044D91"/>
<path transform="translate(766,90)" d="m0 0h136v38l-3 1h-93v40h64l1 1v37l-1 1h-64v39h66l30 1v39h-136z" fill="#054E92"/>
<path transform="translate(1109,87)" d="m0 0h25l16 3 14 5 16 9 8 6-1 4-17 29-3 3-10-9-12-6-12-3h-22l-12 3-12 6-12 11-6 8-6 12-3 12v19l3 11 4 9 6 9 7 8 14 9 14 5 7 1h13l12-2 14-6 11-8 1-2 3 1 12 20 7 11-1 4-14 9-14 7-14 4-13 2h-26l-19-5-12-5-15-10-10-9-7-7-10-14-7-15-5-16-2-16v-9l2-16 5-17 8-16 10-14 9-9 13-10 16-9 16-5z" fill="#0F0F11"/>
<path transform="translate(179,87)" d="m0 0h25l16 3 16 6 16 10 6 5-6 11-14 23-4-2-9-7-10-5-11-3-13-1-16 2-13 5-9 6-8 7-9 13-5 13-2 11v10l3 15 8 16 9 10 9 7 13 6 14 3h13l11-2 12-5 10-6 5-5h2l12 20 8 13-5 5-10 7-15 7-14 4-13 2h-25l-19-5-14-6-17-12-8-7-11-14-9-15-7-21-2-12v-20l3-16 7-18 6-11 9-12 11-11 14-10 16-8 13-4z" fill="#054D91"/>
<path transform="translate(1672,90)" d="m0 0h139v38l-1 1h-98v40h59v39h-59v79h-40z" fill="#0E0F11"/>
<path transform="translate(1844,90)" d="m0 0h158v38l-1 1h-58v158h-40v-158h-59l-1-3v-35z" fill="#0F0F12"/>
<path transform="translate(96,353)" d="m0 0h666l13 1h189l3-1v4l-943 1 1-4z" fill="#034488"/>
<path transform="translate(966,353)" d="m0 0 1 4h-344v-1l198-1 25-1h118z" fill="#03478C"/>
<path transform="translate(236,233)" d="m0 0h2l12 20 8 13-5 5-10 7-15 7-4-1 16-8 9-6 1-2h2l-2-8-12-20-6 1-10 6-5 2-3-1 16-9z" fill="#034489"/>
<path transform="translate(251,107)" d="m0 0 5 2 2 3-19 32h-4l-8-7-16-8v-1l7 1 12 6 5 2h5l2-5 8-15 1-9z" fill="#034489"/>
<path transform="translate(180,124)" d="m0 0h12l1 2-2 1-16 2-13 5-9 6-8 7-9 13-4 8-1-4 5-11h2l2-5 9-10 14-9 11-4z" fill="#034489"/>
<path transform="translate(168,29)" d="m0 0h24l36 1 6 1v1h-109l1-2h13z" fill="#034287"/>
<path transform="translate(869,169)" d="m0 0 2 1v37h-61v-1l7-1h51v-35z" fill="#0A488B"/>
<path transform="translate(641,280)" d="m0 0h2l-1 3-16 4h-61l-3-2 57-1 15-2z" fill="#034287"/>
<path transform="translate(119,260)" d="m0 0h3v2l4 2 11 8 10 6 11 5 20 5 1 2h-8l-16-5-12-5-17-12-7-6z" fill="#05468A"/>
<path transform="translate(663,105)" d="m0 0 4 1 11 8 9 9 11 15 7 15v3h-2l-3-7-8-14-9-11-2-4h-2l-5-5v-2h-2v-2l-5-2z" fill="#034589"/>
<path transform="translate(376,127)" d="m0 0 4 1-12 5-10 6-9 8-9 13-3 3 1-6 8-12h2l2-4 3-1v-2h2v-2l9-5 8-3z" fill="#034489"/>
<path transform="translate(619,128)" d="m0 0h7l10 3 10 5 13 11 5 7v3h-2l-6-8-10-9-16-8-11-3z" fill="#034489"/>
<path transform="translate(353,96)" d="m0 0 3 1-15 9-9 7-5 4-1 2h-2v2l-5 3 1-4 9-9 14-10z" fill="#034589"/>
<path transform="translate(694,240)" d="m0 0 1 3-7 9-9 10h-3v-2h2v-2h2l2-4 2-3h2l2-5h2l2-4z" fill="#034589"/>
<path transform="translate(707,167)" d="m0 0 3 3 1 7v22l-2 4-1-23z" fill="#03468A"/>
<path transform="translate(58,29)" d="m0 0 28 1-2 2h-32l-1-2z" fill="#034287"/>
<path transform="translate(442,277)" d="m0 0h3l-1 3-14 6-6 2h-5l1-2 16-6z" fill="#034489"/>
<path transform="translate(641,280)" d="m0 0h2l-1 3-16 4h-10l3-3 15-2z" fill="#03458A"/>
<path transform="translate(476,248)" d="m0 0 1 4-12 13-5 4-4-1 5-1v-2h2v-3h2v-2h2l2-4 2-3h2l1-3h2z" fill="#034589"/>
<path transform="translate(424,92)" d="m0 0 7 1 19 9 10 7-1 2-16-10-19-8z" fill="#03458A"/>
<path transform="translate(656,228)" d="m0 0 3 1-5 6-14 9-3-1 10-7 8-7z" fill="#034489"/>
<path transform="translate(463,113)" d="m0 0 5 3 9 10 4 6-1 3-13-16-4-4z" fill="#03458A"/>
<path transform="translate(358,283)" d="m0 0 6 1 18 4 1 2h-7l-15-4z" fill="#034589"/>
<path transform="translate(156,283)" d="m0 0 18 4 5 2v1h-8l-14-4z" fill="#034489"/>
<path transform="translate(236,233)" d="m0 0 2 1-6 7-10 6-5 2-3-1 16-9z" fill="#03468B"/>
<path transform="translate(324,260)" d="m0 0 6 4 14 11-3 1-12-9-5-4z" fill="#03458A"/>
<path transform="translate(163,90)" d="m0 0h6l-2 2-9 3-12 5h-2v-2l16-7z" fill="#03458A"/>
<path transform="translate(705,217)" d="m0 0h1l-1 7-7 14h-3l6-12z" fill="#034489"/>
<path transform="translate(405,126)" d="m0 0h8l13 5 3 2v2l-6-2-11-4-7-2z" fill="#03468A"/>
<path transform="translate(133,105)" d="m0 0h3v2l-6 4-6 6-2-1 3-5z" fill="#034489"/>
<path transform="translate(443,230)" d="m0 0h2l-2 5-12 9h-2v-2l12-9z" fill="#03468A"/>
<path transform="translate(657,273)" d="m0 0h2l-1 3-11 5-3-1 4-3z" fill="#034489"/>
<path transform="translate(490,222)" d="m0 0h2l-3 10-3 6-3 1 2-5z" fill="#03458A"/>
<path transform="translate(309,135)" d="m0 0 2 1-8 13-1-2 6-11z" fill="#034589"/>
<path transform="translate(139,226)" d="m0 0h2l7 8 1 3-4-2-1-3h-2l-3-4z" fill="#03468A"/>
<path transform="translate(337,216)" d="m0 0h2l5 9 1 3h-2l-6-9z" fill="#03468A"/>
</svg>
